<svg width="1390" height="806" viewBox="0 0 1390 806" fill="none" xmlns="http://www.w3.org/2000/svg">
<g filter="url(#filter0_i)">
<path d="M1390 192.95V805.95C1390 805.95 889.807 805.95 657.813 805.95C425.818 805.95 0 805.95 0 805.95V192.95C0 192.95 313.5 192.95 432.5 73.9502C551.5 -45.0499 616.5 70.4501 716.5 57.4502C816.5 44.4502 946.5 -65.0498 1069 57.4502C1191.5 179.95 1390 192.95 1390 192.95Z" fill="#E4E4E4"/>
</g>
<g filter="url(#filter1_d)">
<path d="M0 805.95H1390V543.779C1390 543.779 982 668 737 543.779C492 419.558 0 543.779 0 543.779V805.95Z" fill="#ACACAC"/>
</g>
<defs>
<filter id="filter0_i" x="0" y="0" width="1390" height="805.95" filterUnits="userSpaceOnUse" color-interpolation-filters="sRGB">
<feFlood flood-opacity="0" result="BackgroundImageFix"/>
<feBlend mode="normal" in="SourceGraphic" in2="BackgroundImageFix" result="shape"/>
<feColorMatrix in="SourceAlpha" type="matrix" values="0 0 0 0 0 0 0 0 0 0 0 0 0 0 0 0 0 0 127 0" result="hardAlpha"/>
<feOffset dy="1"/>
<feComposite in2="hardAlpha" operator="arithmetic" k2="-1" k3="1"/>
<feColorMatrix type="matrix" values="0 0 0 0 0.929167 0 0 0 0 0.818552 0 0 0 0 0 0 0 0 0.18 0"/>
<feBlend mode="normal" in2="shape" result="effect1_innerShadow"/>
</filter>
<filter id="filter1_d" x="0" y="483.57" width="1390" height="322.38" filterUnits="userSpaceOnUse" color-interpolation-filters="sRGB">
<feFlood flood-opacity="0" result="BackgroundImageFix"/>
<feColorMatrix in="SourceAlpha" type="matrix" values="0 0 0 0 0 0 0 0 0 0 0 0 0 0 0 0 0 0 127 0"/>
<feOffset dy="-5"/>
<feColorMatrix type="matrix" values="0 0 0 0 0.945833 0 0 0 0 0.833234 0 0 0 0 0 0 0 0 0.36 0"/>
<feBlend mode="normal" in2="BackgroundImageFix" result="effect1_dropShadow"/>
<feBlend mode="normal" in="SourceGraphic" in2="effect1_dropShadow" result="shape"/>
</filter>
</defs>
</svg>
